<?xml version="1.0" encoding="UTF-8"?>
<svg id="Calque_1" xmlns="http://www.w3.org/2000/svg" version="1.1" xmlns:xlink="http://www.w3.org/1999/xlink" viewBox="0 0 474.4 124.1">
  <!-- Generator: Adobe Illustrator 29.2.1, SVG Export Plug-In . SVG Version: 2.1.0 Build 116)  -->
  <defs>
    <style>
      .st0 {
        fill: #17479e;
      }
    </style>
  </defs>
  <path class="st0" d="M26.7,104.8c1-10.7,1.8-19.7,2.3-27,.5-7.2,1-16.9,1.4-28.9.5-12,.7-20,.7-23.9v-5.5c9.8,0,21.7.1,35.6.1s24.2,0,34-.1v2c-.2.5-.3,2.3-.4,5.4l-.4,6.8c0,1.5-.1,2.9-.1,4.4-8-.3-14.8-.5-20.2-.5s-10,0-12.2,0c-2.1,0-5.4.1-9.8.3l-.8,14.4c4.9.1,10.6.2,17.2.2s8.5-.2,18.6-.4c-.4,5.3-.8,11.7-1.2,19-7.2,0-12.7-.1-16.6-.1-5.7,0-12.2.2-19.3.4l-.7,15.2h7.2c2.1,0,6.5,0,13.2-.2l12.9-.3c1.9,0,5.1-.2,9.6-.5-.5,6.2-.9,12.5-1.2,19.1-10.2,0-21.3-.1-33.4-.1h-27.5c0,0-8.9.1-8.9.1Z"/>
  <path class="st0" d="M100.6,104.8l34.4-44-26.3-41.2h22.1l14.4,28.3,22.1-28.3h20.7l-31.4,40.5,28.6,44.8h-22.1l-18.6-29.2-22.7,29.2h-21.2Z"/>
  <path class="st0" d="M193.2,104.8l1.2-16,1.6-31.2.7-22.1c0-2.4,0-4.8,0-7.1s0-4.7,0-8.8c5.5.1,9.9.2,13.2.2s7.6,0,13.2-.3,10.3-.3,14.2-.3c5.6,0,9.7.4,12.4,1.1,2.7.7,5.1,1.8,7.3,3.3,2.2,1.5,4,3.3,5.4,5.3,1.4,2,2.5,4.4,3.2,7s1.1,5.3,1.1,8c0,5.6-1.4,10.7-4.1,15.3s-6.5,8.1-11.4,10.4-10.4,3.4-16.6,3.4-4.9-.2-7.8-.8c-.3-1.9-1-4.8-1.9-8.5-.9-3.8-1.7-6.6-2.2-8.4,1.8.4,3.8.6,5.7.6,4.2,0,7.3-1,9.4-3s3.1-4.5,3.1-7.4-.2-2.7-.7-3.8c-.5-1.1-1.2-2-2.2-2.7-1-.7-2.1-1.2-3.3-1.4-1.2-.2-2.6-.3-4.1-.3s-3.1,0-4.7.1l-5.2.4c-.5,8-.9,17-1.2,26.8-.5,17.9-.8,28.6-.8,32.2v8.1h-12.4c-1.7-.1-6.1,0-13,0Z"/>
  <path class="st0" d="M274.5,104.8c1-10.7,1.8-19.7,2.3-27,.5-7.2,1-16.9,1.4-28.9.5-12,.7-20,.7-23.9v-5.5c9.8,0,21.6.1,35.6.1s24.2,0,34-.1v2c-.2.5-.3,2.3-.4,5.4l-.4,6.8c0,1.5-.1,2.9-.1,4.4-8-.3-14.8-.5-20.2-.5s-10,0-12.1,0c-2.1,0-5.4.1-9.8.3l-.8,14.4c4.9.1,10.6.2,17.2.2s8.5-.2,18.6-.4c-.4,5.3-.8,11.7-1.2,19-7.2,0-12.7-.1-16.6-.1-5.7,0-12.2.2-19.3.4l-.7,15.2h7.2c2.1,0,6.5,0,13.2-.2l12.9-.3c1.9,0,5.1-.2,9.6-.5-.5,6.2-.9,12.5-1.2,19.1-10.2,0-21.3-.1-33.4-.1h-27.5c0,0-8.9.1-8.9.1Z"/>
  <path class="st0" d="M359,104.8c.9-9.5,1.5-17.1,1.9-22.8.5-8.5,1-19.5,1.5-33,.4-10.3.6-17.7.6-22.2v-7.3c4.9.1,9.1.2,12.6.2s7.9,0,13.4-.3,10.7-.3,15.6-.3,10.5.3,14.7,1,8.1,2,11.8,4.1c3.6,2.1,6.7,4.8,9.1,8.2,2.5,3.4,4.3,7.3,5.6,11.8,1.3,4.5,1.9,9.2,1.9,14s-.5,9.2-1.5,13.6-2.4,8.3-4.2,11.8c-1.8,3.5-3.9,6.5-6.3,9-2.4,2.5-5.1,4.7-8.2,6.5-2.3,1.3-4.6,2.4-6.9,3.1s-5.5,1.3-9.5,1.8c-4.5.5-9.6.8-15.3.8l-25.2-.2c-2.4,0-6.2,0-11.6.2ZM386,86.1c2.3.2,4.7.3,7.2.3,4.2,0,8-.4,11.4-1.1s6.2-2.3,8.8-4.8,4.4-5.6,5.6-9.5,1.8-7.8,1.8-11.8-.9-9.1-2.7-12.5-4.2-5.8-7.1-7.1c-3-1.3-7-2-12.1-2s-6.5.1-10.6.4l-2.1,48.1Z"/>
</svg>